<svg width="143" height="143" viewBox="0 0 143 143" fill="none" xmlns="http://www.w3.org/2000/svg">
<g clip-path="url(#clip0)">
<path d="M120.656 104.792C120.656 131.828 98.7594 131.828 71.5 131.828C44.2406 131.828 22.3438 131.828 22.3438 104.792C22.3438 77.7563 44.4641 33.5156 71.5 33.5156C98.5359 33.5156 120.656 77.5328 120.656 104.792Z" fill="#DBB471"/>
<path opacity="0.5" d="M120.656 104.792C120.656 95.6313 118.198 84.4594 113.729 73.7344C114.623 80.6609 112.836 92.95 91.6092 97.6422C61.4451 104.122 77.0857 112.613 65.2436 113.73C55.1889 114.623 28.3764 110.602 23.0139 95.4078C22.567 98.7594 22.1201 101.888 22.1201 105.016C22.3436 131.828 44.4639 131.828 71.4998 131.828C98.5357 131.828 120.656 131.828 120.656 104.792Z" fill="#89664C"/>
<path d="M84.6826 91.8332C83.7888 87.3645 79.9904 86.0238 75.9685 85.8004V79.5441C77.0857 79.991 78.4263 80.6613 79.3201 81.3316C81.1076 82.4488 82.8951 79.5441 81.1076 78.427C79.5435 77.5332 77.756 76.6395 75.9685 75.9691V68.5957C75.9685 66.3613 72.617 66.3613 72.617 68.5957V75.0754C70.8295 74.8519 69.042 74.8519 67.2545 75.0754C67.031 73.5113 66.5841 71.9473 66.1373 70.3832C65.6904 68.1488 62.3388 69.0426 63.0091 71.277C63.456 72.841 63.6795 74.4051 64.1263 75.9691C63.9029 75.9691 63.9029 75.9691 63.6795 76.1926C59.2107 77.9801 56.306 82.4488 59.6576 86.6941C61.2216 88.7051 63.2326 89.3754 65.467 89.8223C65.6904 92.727 65.6904 95.6316 65.6904 98.5363C64.1263 97.6426 62.7857 96.302 61.6685 95.1848C60.1045 93.6207 57.8701 96.0785 59.2107 97.6426C61.2216 99.877 63.456 101.441 65.6904 102.558C65.6904 105.016 65.9138 107.474 66.1373 109.932C66.3607 112.166 69.7123 112.166 69.4888 109.932C69.2654 107.697 69.042 105.686 69.042 103.452C70.3826 103.675 71.7232 103.675 73.0638 103.675C73.2873 105.91 73.5107 108.144 73.7341 110.602C73.9576 112.836 77.3091 112.836 77.0857 110.602C76.8623 108.144 76.6388 105.686 76.4154 103.005C81.331 101.218 85.7998 97.4191 84.6826 91.8332V91.8332ZM72.617 78.427V85.8004C71.4998 85.8004 70.606 86.0238 69.7123 86.0238H68.5951L67.9248 77.9801C69.4888 77.9801 71.0529 78.2035 72.617 78.427ZM64.5732 85.577C63.6795 85.3535 62.7857 84.6832 61.892 84.0129C59.881 82.002 62.7857 80.2145 64.5732 79.3207C64.7966 81.5551 65.0201 83.566 65.2435 85.8004C65.0201 85.8004 64.7966 85.8004 64.5732 85.577V85.577ZM71.9466 99.877C70.8295 100.1 69.9357 99.877 69.042 99.6535C68.8185 96.302 68.8185 92.9504 68.8185 89.3754C70.1591 89.3754 71.4998 89.152 72.8404 89.152C72.8404 92.727 73.0638 96.0785 73.0638 99.6535C72.617 99.877 72.3935 99.877 71.9466 99.877ZM79.3201 97.4191C78.4263 98.0895 77.3091 98.5363 76.4154 98.9832C76.192 95.6316 76.192 92.5035 76.192 89.152H77.3091C81.5545 90.0457 82.6716 94.7379 79.3201 97.4191" fill="#89664C"/>
<path d="M75.9691 122.891H70.8301V131.828L91.6098 143L138.532 128.477V120.656L121.327 110.602L75.9691 122.891Z" fill="#699635"/>
<path d="M71.5 117.752C71.5 117.752 76.8625 126.466 92.0563 134.062C92.0563 134.062 115.741 132.945 138.531 117.752C138.531 117.752 125.348 111.272 121.55 102.781C121.55 102.781 112.612 115.294 71.5 117.752Z" fill="#83BF4F"/>
<path d="M61.4455 122.667L66.3611 122.443L67.0314 130.711L47.5924 143L0.893945 132.945L0.223633 125.571L16.0877 114.623L61.4455 122.667Z" fill="#699635"/>
<path d="M65.2438 117.528C65.2438 117.528 60.5516 126.242 46.475 134.509C46.475 134.509 23.4609 135.18 0 122.891C0 122.891 12.5125 115.741 15.4172 107.25C15.4172 107.25 25.2484 118.422 65.2438 117.528" fill="#83BF4F"/>
<path d="M54.0715 119.986C54.0715 119.986 53.4012 121.773 56.5293 121.997L48.2621 128.923C48.2621 128.923 43.3465 128.476 42.2293 131.828C42.2293 131.828 22.1199 129.594 9.16055 123.784C9.16055 123.784 11.8418 121.773 8.49023 120.433C8.49023 120.433 12.2887 117.751 13.1824 115.294C13.1824 115.294 16.7574 115.741 17.8746 113.059C18.3215 112.836 31.7277 120.88 54.0715 119.986V119.986Z" stroke="#699635" stroke-miterlimit="10"/>
<path d="M19.6623 123.114C22.0069 123.114 23.9076 121.814 23.9076 120.209C23.9076 118.605 22.0069 117.305 19.6623 117.305C17.3177 117.305 15.417 118.605 15.417 120.209C15.417 121.814 17.3177 123.114 19.6623 123.114Z" fill="#699635"/>
<path d="M42.4527 116.636C42.4527 116.636 37.3137 123.339 26.1418 132.5L26.8121 138.533L18.9918 136.745L18.5449 130.266C18.5449 130.266 29.9402 119.764 32.398 114.625C32.1746 114.625 36.1965 115.966 42.4527 116.636Z" fill="#F9F3D9"/>
<path d="M94.0664 115.071C94.0664 115.071 96.0773 120.434 111.271 130.265V136.745L119.985 134.063V127.36C119.985 127.36 109.484 119.987 103.227 112.613L94.0664 115.071" fill="#F9F3D9"/>
<path d="M81.3313 107.92L76.4156 107.696L75.9688 116.857L95.8547 129.593L142.553 116.857L142.777 108.813L126.466 97.418L81.3313 107.92Z" fill="#699635"/>
<path d="M77.3096 102.334C77.3096 102.334 82.2252 111.719 96.7486 120.209C96.7486 120.209 119.986 120.209 143 105.909C143 105.909 130.264 98.5359 127.136 89.375C127.136 89.375 117.528 101.887 77.3096 102.334" fill="#83BF4F"/>
<path d="M87.3641 104.791C87.3641 104.791 88.4813 106.579 84.9062 107.249L94.2906 114.623C94.2906 114.623 99.6531 113.282 101.441 116.41C101.441 116.41 123.784 112.388 134.062 107.026C134.062 107.026 130.711 105.462 134.062 103.451C134.062 103.451 130.041 100.099 128.477 97.8648C128.477 97.8648 124.678 98.982 122.667 96.3008C122.667 96.5242 114.623 103.674 87.3641 104.791V104.791Z" stroke="#699635" stroke-miterlimit="10"/>
<path d="M104.568 110.377C103.675 111.495 100.77 111.942 98.3122 111.271C95.8543 110.601 94.7372 109.037 95.6309 107.92C96.5247 106.802 99.4293 106.356 101.887 107.026C104.345 107.696 105.462 109.037 104.568 110.377Z" fill="#699635"/>
<path d="M100.1 100.548C100.1 100.548 105.462 107.698 116.857 117.305L116.634 124.009L124.454 121.774L124.678 114.624C124.678 114.624 113.059 103.452 110.154 98.0898C110.378 98.0898 106.579 99.6539 100.1 100.548Z" fill="#F9F3D9"/>
<path d="M102.781 4.46875C102.781 18.0984 85.1297 40.2188 71.5 40.2188C57.8703 40.2188 40.2188 20.3328 40.2188 6.70312C40.2188 -6.92656 42.2297 6.70312 55.8594 6.70312C57.8703 6.70312 67.2547 0 71.5 0C74.4047 0 82.6719 6.70312 87.1406 6.70312C98.9828 6.70312 102.781 -5.80937 102.781 4.46875Z" fill="#DBB471"/>
<path d="M67.4781 29.7177C66.1374 30.6115 59.6578 29.9412 57.6468 31.5052C54.9656 33.5162 58.764 38.2084 56.0828 41.1131C50.7203 46.4756 46.4749 52.5084 47.8156 55.8599C50.0499 61.6693 54.2953 45.1349 58.0937 51.3912C61.8921 57.6474 61.2218 47.1459 67.0312 52.5084C72.8406 57.8709 67.9249 42.9006 73.5109 49.3802C79.0968 55.8599 79.3203 63.2334 83.3421 63.2334C88.0343 63.2334 78.4265 45.5818 84.6828 49.8271C90.939 54.0724 97.8656 52.5084 91.6093 46.0287C89.5984 44.0177 86.9171 40.4427 83.789 37.3146C82.6718 36.1974 83.5656 30.3881 82.4484 29.4943C81.1078 28.3771 77.7562 31.9521 76.4156 31.2818C73.7343 29.9412 74.6281 32.399 70.6062 33.0693C67.9249 33.9631 70.1593 27.9302 67.4781 29.7177" fill="#89664C"/>
<path d="M41.783 42.8996C50.4971 34.6325 66.3612 39.3246 75.7455 43.3465C84.9065 47.3684 90.4924 34.6325 84.683 28.1528C81.3315 24.3543 75.969 28.8231 73.958 31.5043C71.7237 34.1856 69.9362 37.0903 67.4784 39.7715C63.9034 43.7934 55.1893 40.4418 57.8705 34.8559C60.7752 29.0465 73.0643 35.7496 77.0862 36.8668C84.9065 39.1012 93.1737 39.995 100.994 37.0903C103.675 36.1965 102.558 31.7278 99.8768 32.845C91.1627 35.9731 82.4487 33.9621 74.1815 31.2809C69.9362 29.9403 63.233 26.3653 58.7643 28.3762C46.0284 34.409 57.8705 51.6137 68.5955 44.9106C71.0534 43.3465 72.6174 40.8887 74.4049 38.6543C75.5221 37.3137 81.108 28.8231 82.4487 33.0684C83.119 35.3028 82.4487 39.3246 79.9909 39.9949C78.4268 40.6653 75.2987 38.4309 73.7346 37.984C70.8299 36.8668 67.9252 35.9731 64.7971 35.3028C56.5299 33.5153 45.358 33.9621 38.8784 39.9949C36.644 41.7824 39.7721 44.9106 41.783 42.8996" fill="#E8E8E8"/>
<path d="M100.1 1.11719C97.8656 2.90469 93.8438 6.70312 87.1406 6.70312C82.6719 6.70312 74.4047 0 71.5 0C67.2547 0 57.8703 6.70312 55.8594 6.70312C48.4859 6.70312 44.4641 2.90469 42.4531 1.34063C42.4531 1.34063 44.9109 11.3953 52.5078 16.5344C58.0938 20.1094 57.4234 15.8641 60.3281 11.8422C63.2328 7.82031 65.2438 5.80937 70.3828 15.8641C73.0641 21.45 78.2031 0.670312 82.225 7.37344C89.5984 19.6625 92.2797 12.9594 100.1 1.11719Z" fill="#89664C"/>
<path d="M117.081 117.082L116.858 123.785L124.678 121.55L124.902 114.4C124.902 114.624 120.209 116.411 117.081 117.082Z" fill="#DBB471"/>
<path d="M111.272 130.488V136.967L119.986 134.286V127.583C119.763 127.36 117.528 128.7 111.272 130.488" fill="#DBB471"/>
<path d="M26.1423 132.275L26.8126 138.531L18.9923 136.743L18.5454 130.264C18.322 130.264 21.4501 131.381 26.1423 132.275" fill="#DBB471"/>
</g>
<defs>
<clipPath id="clip0">
<rect width="143" height="143" fill="white"/>
</clipPath>
</defs>
</svg>
